<svg width="61" height="64" viewBox="0 0 61 64" fill="none" xmlns="http://www.w3.org/2000/svg">
<g clip-path="url(#clip0_5_23)">
<path d="M0 33.346C0 52.4214 12.8878 64 30.6302 64C35.427 64 39.9924 63.3343 42.8245 62.408C44.8182 61.771 45.4538 60.7291 45.4538 59.6582C45.4538 58.587 44.6158 57.7766 43.5467 57.7766C43.1999 57.7766 42.7378 57.8344 42.1886 57.979C38.6632 58.8475 35.6291 59.4264 31.5549 59.4264C15.7485 59.4264 4.97017 49.8743 4.97017 33.5197C4.97017 17.8598 15.1417 6.94708 30.4568 6.94708C44.0089 6.94708 55.3365 15.3125 55.3365 30.3357C55.3365 39.1064 52.3891 45.0112 47.6213 45.0112C44.4424 45.0112 42.6511 43.1586 42.6511 40.0036V20.3781C42.6511 18.815 41.7841 17.8598 40.3102 17.8598C38.8656 17.8598 37.9697 18.815 37.9697 20.3781V23.678H37.7096C36.236 20.1176 32.624 17.8598 28.3184 17.8598C20.8342 17.8598 15.5751 24.2569 15.5751 33.4328C15.5751 42.6956 20.8053 49.1505 28.434 49.1505C32.9128 49.1505 36.3804 46.7191 38.0564 42.6088H38.3164C38.8656 46.6903 42.3043 49.1796 46.8697 49.1796C54.932 49.1796 59.9309 41.2482 59.9309 30.1329C59.9309 13.3152 47.5923 2.40253 30.5145 2.40253C12.5699 2.40253 0 14.7047 0 33.346ZM29.2142 44.5772C24.0417 44.5772 20.7476 40.2642 20.7476 33.4038C20.7476 26.6594 24.0706 22.3464 29.2431 22.3464C34.56 22.3464 37.912 26.5726 37.912 33.2882C37.912 40.1483 34.4733 44.5772 29.2142 44.5772Z" fill="black" fill-opacity="0.85"/>
</g>
<defs>
<clipPath id="clip0_5_23">
<rect width="61" height="64" fill="white"/>
</clipPath>
</defs>
</svg>
