<svg width="68" height="64" viewBox="0 0 68 64" fill="none" xmlns="http://www.w3.org/2000/svg">
<g clip-path="url(#clip0_5_40)">
<path d="M5.18236 20.5639H61.7092C63.3568 20.5639 64.3153 19.3649 64.3153 18.1358C64.3153 17.2365 63.8061 16.4572 62.6979 15.8276L37.1153 1.04918C35.9172 0.359721 34.6589 0 33.4307 0C32.2025 0 30.9144 0.359721 29.7762 1.04918L4.19383 15.8276C3.0555 16.4572 2.57621 17.2365 2.57621 18.1358C2.57621 19.3649 3.53479 20.5639 5.18236 20.5639ZM12.0123 16.9368L32.2626 5.54567C32.6221 5.33583 33.0712 5.21593 33.4307 5.21593C33.8202 5.21593 34.2396 5.33583 34.6291 5.54567L54.8791 16.9368L55.1788 16.0375H11.7128L12.0123 16.9368ZM6.82994 26.7691H14.8282C15.9365 26.7691 16.5956 26.1396 16.5956 25.0305V24.6108C16.5956 23.5016 15.9365 22.8422 14.8282 22.8422H6.82994C5.72157 22.8422 5.06255 23.5016 5.06255 24.6108V25.0305C5.06255 26.1396 5.72157 26.7691 6.82994 26.7691ZM8.56739 53.7481H13.0907V25.9298H8.56739V53.7481ZM6.82994 56.8355H14.8282C15.9365 56.8355 16.5956 56.206 16.5956 55.0671V54.6472C16.5956 53.5382 15.9365 52.9086 14.8282 52.9086H6.82994C5.72157 52.9086 5.06255 53.5382 5.06255 54.6472V55.0671C5.06255 56.206 5.72157 56.8355 6.82994 56.8355ZM21.9277 26.7691H29.896C31.0344 26.7691 31.6635 26.1396 31.6635 25.0305V24.6108C31.6635 23.5016 31.0344 22.8422 29.896 22.8422H21.9277C20.7894 22.8422 20.1603 23.5016 20.1603 24.6108V25.0305C20.1603 26.1396 20.7894 26.7691 21.9277 26.7691ZM23.6352 53.7481H28.1586V25.9298H23.6352V53.7481ZM21.9277 56.8355H29.896C31.0344 56.8355 31.6635 56.206 31.6635 55.0671V54.6472C31.6635 53.5382 31.0344 52.9086 29.896 52.9086H21.9277C20.7894 52.9086 20.1603 53.5382 20.1603 54.6472V55.0671C20.1603 56.206 20.7894 56.8355 21.9277 56.8355ZM36.9954 26.7691H44.9638C46.1022 26.7691 46.761 26.1396 46.761 25.0305V24.6108C46.761 23.5016 46.1022 22.8422 44.9638 22.8422H36.9954C35.8574 22.8422 35.2282 23.5016 35.2282 24.6108V25.0305C35.2282 26.1396 35.8574 26.7691 36.9954 26.7691ZM38.7331 53.7481H43.2564V25.9298H38.7331V53.7481ZM36.9954 56.8355H44.9638C46.1022 56.8355 46.761 56.206 46.761 55.0671V54.6472C46.761 53.5382 46.1022 52.9086 44.9638 52.9086H36.9954C35.8574 52.9086 35.2282 53.5382 35.2282 54.6472V55.0671C35.2282 56.206 35.8574 56.8355 36.9954 56.8355ZM52.0635 26.7691H60.0617C61.1699 26.7691 61.8288 26.1396 61.8288 25.0305V24.6108C61.8288 23.5016 61.1699 22.8422 60.0617 22.8422H52.0635C50.9549 22.8422 50.296 23.5016 50.296 24.6108V25.0305C50.296 26.1396 50.9549 26.7691 52.0635 26.7691ZM53.8307 53.7481H58.354V25.9298H53.8307V53.7481ZM52.0635 56.8355H60.0617C61.1699 56.8355 61.8288 56.206 61.8288 55.0671V54.6472C61.8288 53.5382 61.1699 52.9086 60.0617 52.9086H52.0635C50.9549 52.9086 50.296 53.5382 50.296 54.6472V55.0671C50.296 56.206 50.9549 56.8355 52.0635 56.8355ZM2.39647 63.9699H64.465C65.7831 63.9699 66.8914 62.8609 66.8914 61.5419C66.8914 60.2229 65.7831 59.1439 64.465 59.1439H2.39647C1.07841 59.1439 0 60.2229 0 61.5419C0 62.8609 1.07841 63.9699 2.39647 63.9699Z" fill="black" fill-opacity="0.85"/>
</g>
<defs>
<clipPath id="clip0_5_40">
<rect width="68" height="64" fill="white"/>
</clipPath>
</defs>
</svg>
