<svg width="107" height="64" viewBox="0 0 107 64" fill="none" xmlns="http://www.w3.org/2000/svg">
<g clip-path="url(#clip0_8_6)">
<path d="M52.4144 64C53.9223 64 55.4302 63.3988 56.4555 62.2573L103.14 14.6028C104.165 13.5812 104.768 12.2591 104.768 10.7568C104.768 7.63188 102.416 5.22815 99.2796 5.22815C97.7719 5.22815 96.3847 5.82909 95.3595 6.79062L49.1573 53.8441H55.6111L9.40927 6.79062C8.44422 5.82909 7.05695 5.22815 5.48873 5.22815C2.35231 5.22815 0 7.63188 0 10.7568C0 12.2591 0.603157 13.5812 1.62853 14.6629L48.3129 62.2573C49.4589 63.3988 50.8462 64 52.4144 64Z" fill="black" fill-opacity="0.85"/>
</g>
<defs>
<clipPath id="clip0_8_6">
<rect width="107" height="64" fill="white"/>
</clipPath>
</defs>
</svg>
