<svg width="89" height="64" viewBox="0 0 89 64" fill="none" xmlns="http://www.w3.org/2000/svg">
<g clip-path="url(#clip0_5_7)">
<path d="M16.7411 50.8928H25.876C28.0759 50.8928 29.53 49.395 29.53 47.2978V40.3695C29.53 38.2351 28.0759 36.7746 25.876 36.7746H16.7411C14.5413 36.7746 13.0871 38.2351 13.0871 40.3695V47.2978C13.0871 49.395 14.5413 50.8928 16.7411 50.8928ZM3.02012 23.4429H84.6379V14.942H3.02012V23.4429ZM11.7076 64H75.913C83.743 64 87.6205 60.1426 87.6205 52.4283V11.6465C87.6205 3.93211 83.743 0.0374451 75.913 0.0374451H11.7076C3.91496 0.0374451 0 3.93211 0 11.6465V52.4283C0 60.1426 3.91496 64 11.7076 64ZM11.7822 57.9706C8.05366 57.9706 6.00296 55.9858 6.00296 52.0912V11.9836C6.00296 8.08893 8.05366 6.06668 11.7822 6.06668H75.8385C79.4924 6.06668 81.6179 8.08893 81.6179 11.9836V52.0912C81.6179 55.9858 79.4924 57.9706 75.8385 57.9706H11.7822Z" fill="black" fill-opacity="0.85"/>
</g>
<defs>
<clipPath id="clip0_5_7">
<rect width="89" height="64" fill="white"/>
</clipPath>
</defs>
</svg>
