<svg width="52" height="64" viewBox="0 0 52 64" fill="none" xmlns="http://www.w3.org/2000/svg">
<g clip-path="url(#clip0_5_17)">
<path d="M9.37754 63.9701H41.5031C47.7649 63.9701 50.8808 60.8372 50.8808 54.6313V27.5393C50.8808 23.6904 50.427 22.0195 48.0069 19.5729L31.3392 2.83449C29.0402 0.507227 27.1344 0 23.7464 0H9.37754C3.146 0 0 3.16271 0 9.36876V54.6313C0 60.8671 3.11577 63.9701 9.37754 63.9701ZM9.58929 59.1662C6.47352 59.1662 4.87029 57.5252 4.87029 54.5418V9.45825C4.87029 6.50443 6.47352 4.80374 9.61956 4.80374H23.0809V22.1389C23.0809 25.8983 24.9866 27.7482 28.7679 27.7482H46.0105V54.5418C46.0105 57.5252 44.4071 59.1662 41.2612 59.1662H9.58929ZM29.3124 23.2428C28.1024 23.2428 27.6486 22.7655 27.6486 21.572V5.72866L45.0728 23.2428H29.3124Z" fill="black" fill-opacity="0.85"/>
<path d="M36.5723 35.983H13.6126C12.5236 35.983 11.7068 36.7887 11.7068 37.8031C11.7068 38.8474 12.5236 39.653 13.6126 39.653H36.5723C37.6311 39.653 38.4176 38.8474 38.4176 37.8031C38.4176 36.7887 37.6311 35.983 36.5723 35.983ZM36.5723 46.3961H13.6126C12.5236 46.3961 11.7068 47.2317 11.7068 48.276C11.7068 49.2903 12.5236 50.0661 13.6126 50.0661H36.5723C37.6311 50.0661 38.4176 49.2903 38.4176 48.276C38.4176 47.2317 37.6311 46.3961 36.5723 46.3961Z" fill="black" fill-opacity="0.85"/>
</g>
<defs>
<clipPath id="clip0_5_17">
<rect width="52" height="64" fill="white"/>
</clipPath>
</defs>
</svg>
