<svg width="91" height="64" viewBox="0 0 91 64" fill="none" xmlns="http://www.w3.org/2000/svg">
<g clip-path="url(#clip0_5_28)">
<path d="M11.6629 64H79.077C85.7258 64 89.6258 60.1416 89.6258 52.4987V11.5386C89.6258 3.89566 85.6885 0.0371094 77.9626 0.0371094H10.5486C3.89999 0.0371094 0 3.89566 0 11.5386V52.4987C0 60.1416 3.93715 64 11.6629 64ZM11.44 58.3236C7.76287 58.3236 5.68285 56.2831 5.68285 52.4615V11.5014C5.68285 7.71711 7.76287 5.71365 11.44 5.71365H78.1486C81.8258 5.71365 83.9427 7.71711 83.9427 11.5386V52.4987C83.9427 56.2831 81.8258 58.3236 78.1486 58.3236H11.44ZM44.7941 41.7763C47.1712 41.7763 49.4742 40.8857 51.5916 38.9565L86.5428 7.5316L82.68 3.63595L48.3598 34.5415C47.2085 35.5803 46.0199 36.0626 44.7941 36.0626C43.5686 36.0626 42.38 35.5803 41.2284 34.5415L6.90858 3.63595L3.04571 7.5316L37.9971 38.9565C40.1143 40.8857 42.4169 41.7763 44.7941 41.7763ZM7.46571 59.251L33.8371 32.8719L29.9743 29.0134L3.60286 55.3553L7.46571 59.251ZM82.197 59.2883L86.0601 55.3926L59.6514 29.0134L55.7514 32.8719L82.197 59.2883Z" fill="black" fill-opacity="0.85"/>
</g>
<defs>
<clipPath id="clip0_5_28">
<rect width="91" height="64" fill="white"/>
</clipPath>
</defs>
</svg>
