<svg width="65" height="64" viewBox="0 0 65 64" fill="none" xmlns="http://www.w3.org/2000/svg">
<g clip-path="url(#clip0_5_2)">
<path d="M31.9211 62.2128C40.6212 62.2128 47.7252 49.3249 47.7252 32.0471C47.7252 14.6752 40.6522 1.78736 31.9211 1.78736C23.1897 1.78736 16.117 14.6752 16.117 32.0471C16.117 49.3249 23.221 62.2128 31.9211 62.2128ZM31.9211 5.58159C38.0549 5.58159 43.5316 17.8109 43.5316 32.0471C43.5316 46.0323 38.0549 58.3872 31.9211 58.3872C25.7872 58.3872 20.3105 46.0323 20.3105 32.0471C20.3105 17.8109 25.7872 5.58159 31.9211 5.58159ZM29.8869 2.22636V61.6171H33.9866V2.22636H29.8869ZM31.9211 43.7747C22.2821 43.7747 13.7386 46.3146 9.35724 50.3598L12.5181 52.9623C16.649 49.67 23.3775 47.8825 31.9211 47.8825C40.4648 47.8825 47.1932 49.67 51.324 52.9623L54.485 50.3598C50.1036 46.3146 41.5601 43.7747 31.9211 43.7747ZM60.8064 29.9148H3.03563V34.0226H60.8064V29.9148ZM31.9211 20.3508C41.5601 20.3508 50.1036 17.8109 54.485 13.7658L51.324 11.1632C47.1932 14.4243 40.4648 16.243 31.9211 16.243C23.3775 16.243 16.649 14.4243 12.5181 11.1632L9.35724 13.7658C13.7386 17.8109 22.2821 20.3508 31.9211 20.3508ZM31.9211 63.9689C49.5403 63.9689 63.8422 49.6386 63.8422 31.9844C63.8422 14.3303 49.5403 0 31.9211 0C14.3019 0 0 14.3303 0 31.9844C0 49.6386 14.3019 63.9689 31.9211 63.9689ZM31.9211 59.7043C16.649 59.7043 4.25612 47.2868 4.25612 31.9844C4.25612 16.682 16.649 4.26457 31.9211 4.26457C47.1932 4.26457 59.5861 16.682 59.5861 31.9844C59.5861 47.2868 47.1932 59.7043 31.9211 59.7043Z" fill="black" fill-opacity="0.85"/>
</g>
<defs>
<clipPath id="clip0_5_2">
<rect width="65" height="64" fill="white"/>
</clipPath>
</defs>
</svg>
