<svg width="45" height="64" viewBox="0 0 45 64" fill="none" xmlns="http://www.w3.org/2000/svg">
<g clip-path="url(#clip0_6_2)">
<path d="M7.22184 62.3468H36.5906C41.309 62.3468 43.8125 59.8032 43.8125 54.78V32.8745C43.8125 27.8828 41.309 25.3393 36.5906 25.3393H7.22184C2.50357 25.3393 0 27.8828 0 32.8745V54.78C0 59.8032 2.50357 62.3468 7.22184 62.3468ZM7.3823 57.546C6.00214 57.546 5.19971 56.6875 5.19971 55.1297V32.5246C5.19971 30.9667 6.00214 30.1401 7.3823 30.1401H36.4302C37.8425 30.1401 38.6126 30.9667 38.6126 32.5246V55.1297C38.6126 56.6875 37.8425 57.546 36.4302 57.546H7.3823ZM5.61696 27.7874H10.7204V17.073C10.7204 9.02932 15.888 4.8008 21.8902 4.8008C27.8923 4.8008 33.124 9.02932 33.124 17.073V27.7874H38.1955V17.7407C38.1955 5.78638 30.2996 0 21.8902 0C13.5129 0 5.61696 5.78638 5.61696 17.7407V27.7874Z" fill="black" fill-opacity="0.85"/>
</g>
<defs>
<clipPath id="clip0_6_2">
<rect width="45" height="64" fill="white"/>
</clipPath>
</defs>
</svg>
