<svg width="65" height="64" viewBox="0 0 65 64" fill="none" xmlns="http://www.w3.org/2000/svg">
<g clip-path="url(#clip0_5_12)">
<path d="M31.9211 63.9688C49.5403 63.9688 63.8422 49.6386 63.8422 31.9844C63.8422 14.3303 49.5403 0 31.9211 0C14.3019 0 0 14.3303 0 31.9844C0 49.6386 14.3019 63.9688 31.9211 63.9688ZM31.9211 58.638C17.2123 58.638 5.32019 46.7223 5.32019 31.9844C5.32019 17.2465 17.2123 5.33074 31.9211 5.33074C46.6298 5.33074 58.5219 17.2465 58.5219 31.9844C58.5219 46.7223 46.6298 58.638 31.9211 58.638ZM53.3268 52.6489L53.2329 52.304C51.6995 47.6943 43.4377 42.6457 31.9211 42.6457C20.4357 42.6457 12.1738 47.6943 10.6091 52.2725L10.5152 52.6489C16.1483 58.2305 25.8185 61.4916 31.9211 61.4916C38.0549 61.4916 47.6313 58.2617 53.3268 52.6489ZM31.9211 37.3151C37.961 37.3778 42.6551 32.2354 42.6551 25.4934C42.6551 19.1593 37.9296 13.9226 31.9211 13.9226C25.9124 13.9226 21.1555 19.1593 21.1868 25.4934C21.2181 32.2354 25.9124 37.2525 31.9211 37.3151Z" fill="black" fill-opacity="0.85"/>
</g>
<defs>
<clipPath id="clip0_5_12">
<rect width="65" height="64" fill="white"/>
</clipPath>
</defs>
</svg>
