<svg width="90" height="64" viewBox="0 0 90 64" fill="none" xmlns="http://www.w3.org/2000/svg">
<g clip-path="url(#clip0_5_33)">
<path d="M5.81528 26.9778C6.58473 27.709 7.66198 27.709 8.39294 26.9393C17.8573 16.8948 30.3225 11.5839 44.2881 11.5839C58.3309 11.5839 70.8731 16.9333 80.2605 26.9778C80.953 27.6705 81.9915 27.6321 82.7609 26.9008L88.0704 21.59C88.763 20.8972 88.7243 20.0505 88.1858 19.3963C79.1448 8.23572 62.1397 0.0384827 44.2881 0.0384827C26.4752 0.0384827 9.39325 8.23572 0.390587 19.3963C-0.148034 20.0505 -0.148034 20.8972 0.506006 21.59L5.81528 26.9778Z" fill="black" fill-opacity="0.85"/>
<path d="M21.7815 43.0643C22.6279 43.8726 23.6667 43.7571 24.4362 42.9106C29.0529 37.792 36.5936 34.059 44.2881 34.0975C52.0598 34.059 59.6003 37.9075 64.2939 43.0261C64.9865 43.8339 65.9486 43.7957 66.7948 43.0261L72.7582 37.0993C73.3736 36.4835 73.4508 35.6369 72.8737 34.9442C67.0643 27.8245 56.2918 22.4751 44.2881 22.4751C32.2847 22.4751 21.5122 27.8245 15.7028 34.9442C15.1257 35.6369 15.1642 36.4066 15.8183 37.0993L21.7815 43.0643Z" fill="black" fill-opacity="0.85"/>
<path d="M44.2881 64C45.1348 64 45.8656 63.6154 47.3662 62.1529L56.7535 53.1473C57.3307 52.57 57.4843 51.7235 56.9458 51.0307C54.4449 47.798 49.713 44.9886 44.2881 44.9886C38.7097 44.9886 33.9775 47.9135 31.4767 51.2616C31.092 51.8776 31.2459 52.57 31.8614 53.1473L41.2105 62.1529C42.7107 63.5768 43.4419 64 44.2881 64Z" fill="black" fill-opacity="0.85"/>
</g>
<defs>
<clipPath id="clip0_5_33">
<rect width="90" height="64" fill="white"/>
</clipPath>
</defs>
</svg>
